<svg xmlns="http://www.w3.org/2000/svg" viewBox="0 0 400 120">
  <!-- Palette icon -->
  <g transform="translate(20, 15)">
    <!-- Palette shape -->
    <path d="M45 10 C70 2, 85 15, 82 35 C80 50, 70 65, 55 72 C40 78, 20 75, 10 60 C0 45, 5 25, 20 15 C28 10, 38 8, 45 10Z" fill="#C4704B" opacity="0.9"/>
    <!-- Paint dots -->
    <circle cx="30" cy="25" r="7" fill="#E8A87C"/>
    <circle cx="55" cy="20" r="6" fill="#8FA68A"/>
    <circle cx="65" cy="38" r="5.5" fill="#B39DDB"/>
    <circle cx="50" cy="55" r="6" fill="#F48FB1"/>
    <circle cx="25" cy="50" r="5" fill="#4FC3F7"/>
    <!-- Thumb hole -->
    <ellipse cx="38" cy="40" rx="6" ry="5" fill="#FAF7F2"/>
    <!-- Brush -->
    <rect x="72" y="5" width="4" height="30" rx="2" fill="#8B6F47" transform="rotate(25, 74, 20)"/>
    <rect x="70" y="-2" width="8" height="12" rx="1" fill="#C4704B" transform="rotate(25, 74, 4)"/>
  </g>
  
  <!-- Text: Vitrine -->
  <text x="115" y="55" font-family="Georgia, 'Times New Roman', serif" font-size="38" font-weight="700" fill="#2C2C2C" letter-spacing="-0.5">
    Vitrine
  </text>
  
  <!-- Text: Artisan -->
  <text x="115" y="90" font-family="Georgia, 'Times New Roman', serif" font-size="34" font-weight="400" font-style="italic" fill="#C4704B" letter-spacing="0.5">
    Artisan
  </text>
  
  <!-- Subtle tagline -->
  <text x="117" y="110" font-family="'Helvetica Neue', Arial, sans-serif" font-size="11" fill="#9A8B78" letter-spacing="2">
    CRÉEZ · GÉREZ · EXPOSEZ
  </text>
</svg>
